# xmcd CD database file
#
# Track frame offsets:
#	150
#	38720
#	80565
#	107342
#	145292
#	163179
#	177365
#	190968
#	204103
#	217347
#	230247
#	242838
#	255014
#
# Disc length: 3594 seconds
#
# Revision: 0
# Processed by: cddbd v1.5.2PL0 Copyright (c) Steve Scherf et al.
# Submitted via: CDex 1.70beta2
#
DISCID=b40e080d
DTITLE=Art Blakey - Hard Bop [CD2]
DYEAR=2005
DGENRE=Jazz
TTITLE0=Split Kick
TTITLE1=A Night In Tunisia
TTITLE2=Mayreh
TTITLE3=Confirmation
TTITLE4=Lou's Blues
TTITLE5=Minority
TTITLE6=Salute To Birdland
TTITLE7=Eleanor
TTITLE8=Futurity
TTITLE9=Simplicity
TTITLE10=Strictly Romantic
TTITLE11=Hello
TTITLE12=Mayreh
EXTD=YEAR: 2005
EXTT0=
EXTT1=
EXTT2=
EXTT3=
EXTT4=
EXTT5=
EXTT6=
EXTT7=
EXTT8=
EXTT9=
EXTT10=
EXTT11=
EXTT12=
PLAYORDER=
